<svg width="16" height="16" viewBox="0 0 16 16" fill="none" xmlns="http://www.w3.org/2000/svg">
<path d="M13 11.3093C12.3666 11.3093 11.8 11.5502 11.3667 11.9277L5.42498 8.5944C5.46664 8.40967 5.49998 8.22487 5.49998 8.03213C5.49998 7.83933 5.46664 7.6546 5.42498 7.46987L11.3 4.16867C11.75 4.57028 12.3417 4.81927 13 4.81927C14.3833 4.81927 15.5 3.74297 15.5 2.40964C15.5 1.07631 14.3833 0 13 0C11.6166 0 10.5 1.07631 10.5 2.40964C10.5 2.60241 10.5334 2.78715 10.575 2.97189L4.7 6.27307C4.25 5.87147 3.65833 5.62247 3 5.62247C1.61667 5.62247 0.5 6.6988 0.5 8.03213C0.5 9.36547 1.61667 10.4418 3 10.4418C3.65833 10.4418 4.25 10.1928 4.7 9.79113L10.6333 13.1325C10.5917 13.3012 10.5666 13.4779 10.5666 13.6546C10.5666 14.9478 11.6584 16 13 16C14.3417 16 15.4333 14.9478 15.4333 13.6546C15.4333 12.3615 14.3417 11.3093 13 11.3093Z" fill="white"/>
</svg>
